<svg width="1200" height="825" viewBox="0 0 1200 825" fill="none" xmlns="http://www.w3.org/2000/svg">
  <defs>
    <linearGradient id="court" x1="55" y1="42" x2="1130" y2="760" gradientUnits="userSpaceOnUse">
      <stop offset="0" stop-color="#f9fcff"/>
      <stop offset="0.52" stop-color="#eaf3ff"/>
      <stop offset="1" stop-color="#dcecff"/>
    </linearGradient>
    <linearGradient id="phone" x1="684" y1="178" x2="1021" y2="615" gradientUnits="userSpaceOnUse">
      <stop stop-color="#ffffff"/>
      <stop offset="1" stop-color="#e8f1ff"/>
    </linearGradient>
    <linearGradient id="bluePaddle" x1="300" y1="359" x2="507" y2="648" gradientUnits="userSpaceOnUse">
      <stop stop-color="#2f6bff"/>
      <stop offset="1" stop-color="#244bb3"/>
    </linearGradient>
    <linearGradient id="mintPaddle" x1="456" y1="429" x2="652" y2="690" gradientUnits="userSpaceOnUse">
      <stop stop-color="#73d4c4"/>
      <stop offset="1" stop-color="#2b9585"/>
    </linearGradient>
    <filter id="softShadow" x="-80" y="-80" width="1360" height="985" filterUnits="userSpaceOnUse" color-interpolation-filters="sRGB">
      <feDropShadow dx="0" dy="26" stdDeviation="30" flood-color="#244bb3" flood-opacity="0.16"/>
    </filter>
    <filter id="phoneShadow" x="600" y="70" width="520" height="680" filterUnits="userSpaceOnUse" color-interpolation-filters="sRGB">
      <feDropShadow dx="0" dy="28" stdDeviation="26" flood-color="#111827" flood-opacity="0.22"/>
    </filter>
  </defs>

  <rect width="1200" height="825" rx="54" fill="url(#court)"/>
  <g opacity="0.92">
    <path d="M0 210H1200" stroke="#9ec0fb" stroke-width="10"/>
    <path d="M0 412H1200" stroke="#ffffff" stroke-width="8"/>
    <path d="M0 617H1200" stroke="#9ec0fb" stroke-width="10"/>
    <path d="M330 0V825" stroke="#83b1f5" stroke-width="5"/>
    <path d="M690 0V825" stroke="#83b1f5" stroke-width="5"/>
    <path d="M1048 0V825" stroke="#83b1f5" stroke-width="5"/>
    <path d="M334 0V825" stroke="#ffffff" stroke-opacity="0.72" stroke-width="2"/>
    <path d="M694 0V825" stroke="#ffffff" stroke-opacity="0.72" stroke-width="2"/>
    <path d="M1052 0V825" stroke="#ffffff" stroke-opacity="0.72" stroke-width="2"/>
  </g>

  <g filter="url(#softShadow)">
    <path d="M312 639L414 416" stroke="#1d3a8f" stroke-width="44" stroke-linecap="round"/>
    <ellipse cx="428" cy="376" rx="108" ry="132" transform="rotate(-20 428 376)" fill="url(#bluePaddle)"/>
    <ellipse cx="430" cy="376" rx="72" ry="94" transform="rotate(-20 430 376)" stroke="#79a5ff" stroke-width="13" opacity="0.72"/>

    <path d="M500 710L576 493" stroke="#1f746d" stroke-width="44" stroke-linecap="round"/>
    <ellipse cx="590" cy="462" rx="108" ry="132" transform="rotate(-17 590 462)" fill="url(#mintPaddle)"/>
    <ellipse cx="592" cy="462" rx="70" ry="92" transform="rotate(-17 592 462)" stroke="#a5e7dc" stroke-width="13" opacity="0.72"/>

    <circle cx="576" cy="156" r="70" fill="#eafd3f"/>
    <circle cx="576" cy="156" r="42" stroke="#d6e92b" stroke-width="9"/>
    <path d="M520 156H632M576 100V212M536 116C554 137 574 166 594 202M616 116C594 139 570 170 552 202" stroke="#bacd1f" stroke-width="7" stroke-linecap="round"/>
  </g>

  <g filter="url(#phoneShadow)" transform="rotate(-14 836 408)">
    <rect x="680" y="168" width="326" height="468" rx="44" fill="#111827"/>
    <rect x="705" y="196" width="276" height="412" rx="31" fill="url(#phone)"/>
    <circle cx="842" cy="218" r="7" fill="#d8e4f8"/>

    <rect x="740" y="266" width="196" height="26" rx="13" fill="#2f6bff"/>
    <rect x="740" y="320" width="176" height="22" rx="11" fill="#d7e6ff"/>
    <circle cx="727" cy="331" r="12" fill="#49b4a0"/>
    <rect x="740" y="367" width="190" height="22" rx="11" fill="#d7e6ff"/>
    <circle cx="727" cy="378" r="12" fill="#f000c8"/>
    <rect x="740" y="414" width="154" height="22" rx="11" fill="#d7e6ff"/>
    <circle cx="727" cy="425" r="12" fill="#2f6bff"/>

    <path d="M760 498C802 459 865 456 912 493" stroke="#49b4a0" stroke-width="7" stroke-linecap="round" stroke-dasharray="1 15"/>
    <path d="M758 534C820 582 900 570 934 520" stroke="#2f6bff" stroke-width="8" stroke-linecap="round"/>
    <circle cx="758" cy="498" r="18" fill="#ffffff" stroke="#cfe0ff" stroke-width="4"/>
    <circle cx="838" cy="470" r="18" fill="#ffffff" stroke="#cfe0ff" stroke-width="4"/>
    <circle cx="914" cy="494" r="18" fill="#ffffff" stroke="#cfe0ff" stroke-width="4"/>
    <circle cx="758" cy="534" r="18" fill="#ffffff" stroke="#cfe0ff" stroke-width="4"/>
    <circle cx="932" cy="520" r="18" fill="#ffffff" stroke="#cfe0ff" stroke-width="4"/>

    <rect x="742" y="559" width="116" height="26" rx="13" fill="#2f6bff"/>
    <rect x="879" y="559" width="72" height="26" rx="13" fill="#49b4a0"/>
  </g>

  <g opacity="0.86">
    <path d="M137 612C217 557 281 548 357 586" stroke="#2f6bff" stroke-width="5" stroke-linecap="round" stroke-dasharray="4 18"/>
    <path d="M178 515C254 470 331 473 392 532" stroke="#49b4a0" stroke-width="5" stroke-linecap="round" stroke-dasharray="4 18"/>
    <path d="M164 707C248 690 332 700 421 759" stroke="#f000c8" stroke-width="5" stroke-linecap="round" stroke-dasharray="4 18"/>
    <circle cx="137" cy="612" r="16" fill="#2f6bff"/>
    <circle cx="178" cy="515" r="16" fill="#49b4a0"/>
    <circle cx="164" cy="707" r="16" fill="#f000c8"/>
    <circle cx="357" cy="586" r="11" fill="#2f6bff"/>
    <circle cx="392" cy="532" r="11" fill="#49b4a0"/>
    <circle cx="421" cy="759" r="11" fill="#f000c8"/>
  </g>
</svg>
