<svg xmlns="http://www.w3.org/2000/svg" viewBox="0 0 1200 1200" role="img" aria-labelledby="title desc">
  <title id="title">Give n Take warm pickleball growth loop</title>
  <desc id="desc">A premium public-safe visual showing a pickleball event growth loop from host to followers to friend referrals.</desc>
  <defs>
    <linearGradient id="sky" x1="0" x2="1" y1="0" y2="1">
      <stop offset="0" stop-color="#f8fbff"/>
      <stop offset=".5" stop-color="#eef6ff"/>
      <stop offset="1" stop-color="#eafff7"/>
    </linearGradient>
    <linearGradient id="court" x1=".1" x2=".9" y1=".1" y2=".9">
      <stop offset="0" stop-color="#eaf3ff"/>
      <stop offset=".48" stop-color="#f8fbff"/>
      <stop offset="1" stop-color="#e6fff7"/>
    </linearGradient>
    <linearGradient id="blue" x1="0" x2="1" y1="0" y2="1">
      <stop offset="0" stop-color="#5b8cff"/>
      <stop offset="1" stop-color="#244bb3"/>
    </linearGradient>
    <linearGradient id="mint" x1="0" x2="1" y1="0" y2="1">
      <stop offset="0" stop-color="#80dece"/>
      <stop offset="1" stop-color="#2ea891"/>
    </linearGradient>
    <linearGradient id="gold" x1="0" x2="1" y1="0" y2="1">
      <stop offset="0" stop-color="#ffe18e"/>
      <stop offset="1" stop-color="#e5a926"/>
    </linearGradient>
    <linearGradient id="magenta" x1="0" x2="1" y1="0" y2="1">
      <stop offset="0" stop-color="#ff59df"/>
      <stop offset="1" stop-color="#d700b7"/>
    </linearGradient>
    <filter id="heroShadow" x="-20%" y="-20%" width="140%" height="150%">
      <feDropShadow dx="0" dy="36" stdDeviation="32" flood-color="#244bb3" flood-opacity=".18"/>
    </filter>
    <filter id="cardShadow" x="-30%" y="-30%" width="160%" height="170%">
      <feDropShadow dx="0" dy="16" stdDeviation="16" flood-color="#244bb3" flood-opacity=".17"/>
    </filter>
  </defs>

  <rect width="1200" height="1200" rx="74" fill="url(#sky)"/>
  <path d="M124 260h952M124 496h952M124 732h952M124 968h952M296 168v864M600 168v864M904 168v864" fill="none" stroke="#cfe3ff" stroke-width="5"/>

  <g filter="url(#heroShadow)">
    <path d="M203 202h794c66 0 120 54 120 120v556c0 66-54 120-120 120H203c-66 0-120-54-120-120V322c0-66 54-120 120-120Z" fill="url(#court)" opacity=".82"/>
  </g>

  <g fill="none" stroke-linecap="round" stroke-width="13">
    <path d="M600 405C454 304 315 306 183 411" stroke="#2f6bff"/>
    <path d="M600 405c146-101 285-99 417 6" stroke="#49b4a0"/>
    <path d="M600 620C438 634 306 718 203 872" stroke="#49b4a0"/>
    <path d="M600 620c162 14 294 98 397 252" stroke="#2f6bff"/>
    <path d="M600 620c-2 106-54 193-156 263" stroke="#f0b83c"/>
    <path d="M600 620c2 106 54 193 156 263" stroke="#f000c8"/>
  </g>

  <g filter="url(#heroShadow)">
    <rect x="392" y="290" width="416" height="538" rx="58" fill="#ffffff"/>
    <rect x="430" y="328" width="340" height="150" rx="38" fill="url(#blue)"/>
    <circle cx="600" cy="405" r="54" fill="#ffffff" opacity=".94"/>
    <circle cx="600" cy="380" r="24" fill="#244bb3"/>
    <path d="M563 430c12-27 25-40 38-40s26 13 38 40" fill="none" stroke="#244bb3" stroke-linecap="round" stroke-width="16"/>
    <rect x="452" y="535" width="296" height="54" rx="27" fill="#eaf2ff"/>
    <circle cx="503" cy="562" r="14" fill="#2f6bff"/>
    <circle cx="548" cy="562" r="14" fill="#49b4a0"/>
    <circle cx="593" cy="562" r="14" fill="#f000c8"/>
    <circle cx="638" cy="562" r="14" fill="#f0b83c"/>
    <rect x="452" y="625" width="296" height="44" rx="22" fill="#edf7f4"/>
    <rect x="452" y="697" width="196" height="44" rx="22" fill="#eaf2ff"/>
  </g>

  <g filter="url(#cardShadow)">
    <rect x="145" y="362" width="214" height="116" rx="38" fill="#ffffff"/>
    <circle cx="202" cy="420" r="28" fill="url(#blue)"/>
    <circle cx="259" cy="420" r="28" fill="url(#mint)"/>
    <path d="M282 389l41 31-41 31" fill="none" stroke="#2f6bff" stroke-linecap="round" stroke-linejoin="round" stroke-width="9"/>

    <rect x="841" y="362" width="214" height="116" rx="38" fill="#ffffff"/>
    <circle cx="898" cy="420" r="28" fill="url(#mint)"/>
    <circle cx="955" cy="420" r="28" fill="url(#blue)"/>
    <path d="M978 389l41 31-41 31" fill="none" stroke="#49b4a0" stroke-linecap="round" stroke-linejoin="round" stroke-width="9"/>

    <rect x="159" y="815" width="248" height="110" rx="40" fill="#ffffff"/>
    <circle cx="216" cy="870" r="27" fill="#2f6bff"/>
    <circle cx="278" cy="870" r="27" fill="#49b4a0"/>
    <circle cx="340" cy="870" r="27" fill="#f0b83c"/>

    <rect x="793" y="815" width="248" height="110" rx="40" fill="#ffffff"/>
    <circle cx="850" cy="870" r="27" fill="#49b4a0"/>
    <circle cx="912" cy="870" r="27" fill="#2f6bff"/>
    <circle cx="974" cy="870" r="27" fill="#f000c8"/>
  </g>

  <g filter="url(#cardShadow)">
    <path d="M271 643h164v98H271z" fill="#ffffff"/>
    <path d="M271 643l82 56 82-56" fill="none" stroke="#2f6bff" stroke-linecap="round" stroke-linejoin="round" stroke-width="10"/>
    <path d="M765 643h164v98H765z" fill="#ffffff"/>
    <path d="M765 643l82 56 82-56" fill="none" stroke="#49b4a0" stroke-linecap="round" stroke-linejoin="round" stroke-width="10"/>
  </g>

  <g>
    <circle cx="600" cy="186" r="45" fill="url(#gold)" filter="url(#cardShadow)"/>
    <path d="M600 158v56M572 186h56M580 166l40 40M620 166l-40 40" stroke="#bc8c12" stroke-linecap="round" stroke-width="7"/>
    <circle cx="430" cy="258" r="17" fill="#2f6bff"/>
    <circle cx="770" cy="258" r="17" fill="#49b4a0"/>
    <circle cx="432" cy="904" r="16" fill="#f0b83c"/>
    <circle cx="768" cy="904" r="16" fill="#f000c8"/>
    <circle cx="600" cy="996" r="18" fill="#49b4a0"/>
  </g>
</svg>
